<svg width="660" height="330" xmlns="http://www.w3.org/2000/svg">

 <g>
  <title>Layer 1</title>
  <path id="svg_1" fill="#fff" d="m637.5,179.99291a206392,206392 0 0 1 -28,-28l-2,-2a448,448 0 0 0 -277,-127c-113,0 -226,51 -308,127l15,15l13,14l1,1c75,72 175,121 278,127c113,1 226,-51 308,-127zm-585,-1c73,-76 181,-134 287,-135c96,0 194,46 267,107a419,419 0 0 1 -287,135c-95,1 -194,-45 -267,-107z"/>
  <path id="svg_2" fill="#fff" d="m359.49948,68.99295c-29,0 -55,13 -73,34c6,-3 14,-5 22,-5a45,45 0 1 1 -45,54l-1,14a97,97 0 1 0 97,-97z"/>
 </g>
</svg>