<?xml version="1.0" standalone="no"?>
<!DOCTYPE svg PUBLIC "-//W3C//DTD SVG 20010904//EN"
 "http://www.w3.org/TR/2001/REC-SVG-20010904/DTD/svg10.dtd">
<svg version="1.0" xmlns="http://www.w3.org/2000/svg"
 width="512.000000pt" height="512.000000pt" viewBox="0 0 512.000000 512.000000"
 preserveAspectRatio="xMidYMid meet">
<metadata>
Created by potrace 1.14, written by Peter Selinger 2001-2017
</metadata>
<g transform="translate(0.000000,512.000000) scale(0.100000,-0.100000)"
fill="#000000" stroke="none">
<path d="M0 3467 l0 -1604 29 -24 c16 -13 74 -66 130 -118 56 -51 111 -102
124 -113 12 -11 58 -52 101 -91 44 -40 89 -80 100 -90 27 -24 161 -145 206
-187 94 -86 143 -131 220 -200 161 -144 220 -198 324 -295 25 -23 85 -77 205
-185 46 -41 98 -88 115 -104 17 -15 66 -60 110 -100 43 -39 91 -82 106 -96 32
-29 184 -166 214 -194 20 -18 38 -18 346 -13 179 3 363 11 410 17 47 5 126 15
175 21 191 22 380 63 510 109 240 86 466 190 567 261 14 11 29 19 33 19 11 0
189 124 215 150 3 3 25 21 50 40 73 55 183 163 299 290 22 25 41 48 41 51 0 3
11 19 25 35 25 28 145 202 145 209 0 2 15 30 34 63 109 194 194 433 241 682
49 263 62 813 25 1076 -40 287 -140 571 -277 784 -75 116 -88 135 -100 148 -7
7 -13 17 -13 20 0 4 -10 18 -22 32 -13 14 -41 48 -63 75 -41 52 -211 225 -281
285 -95 82 -343 260 -363 260 -5 0 -11 3 -13 8 -1 4 -23 18 -48 31 -25 13 -67
36 -95 50 -211 113 -542 218 -825 262 -41 6 -97 16 -125 22 -34 7 -514 12
-1462 14 l-1413 4 0 -1604z m2712 -263 c135 -35 244 -105 326 -211 41 -53 87
-150 109 -233 25 -95 25 -330 -1 -425 -50 -187 -166 -318 -346 -389 -86 -34
-212 -46 -507 -46 l-283 0 0 660 0 660 321 0 c258 0 333 -3 381 -16z"/>
</g>
</svg>
